<?xml version="1.0" encoding="UTF-8"?>
<svg xmlns="http://www.w3.org/2000/svg" width="138" height="138" viewBox="0 0 138 138" fill="none">
  <path d="M70.2315 9.25679L71.8222 12.3099L71.7093 12.3048L68.5177 12.2432L70.2315 9.25679Z" fill="#192C55"></path>
  <path d="M60.2358 10.2625C60.0767 10.5293 59.8048 10.6935 59.4097 10.7654L56.1872 11.3555L55.8332 9.42612L55.8999 9.41586L59.0556 8.84115C59.4764 8.76418 59.7894 8.82063 60.01 9.02075C60.1845 9.16442 60.2974 9.35941 60.3384 9.60058C60.3846 9.84688 60.3487 10.0624 60.2358 10.2625Z" fill="#192C55"></path>
  <path d="M59.9639 11.9917L56.49 12.628L56.4233 12.6383L56.7979 14.6908L56.8081 14.7575L60.3487 14.111C60.8464 14.0186 61.1492 13.8236 61.2928 13.4952C61.3852 13.3105 61.4109 13.0744 61.3647 12.8179C61.3236 12.5818 61.2159 12.3766 61.0466 12.2124C60.79 11.9764 60.4359 11.9045 59.9639 11.9917Z" fill="#192C55"></path>
  <path d="M24.8147 26.9955C25.3433 26.4208 26.1027 26.3747 26.6569 26.8827V26.8775C27.211 27.3855 27.2316 28.1449 26.7031 28.7196L24.5223 31.1005L22.634 29.3713L24.8147 26.9955Z" fill="#192C55"></path>
  <path d="M17.4771 38.7359L19.2371 41.6863L20.915 38.8436L17.4771 38.7359Z" fill="#192C55"></path>
  <path d="M13.6902 46.7201C13.3515 46.6021 13.018 46.6021 12.7153 46.715C12.3048 46.8792 12.0225 47.2435 11.7916 47.8951L10.8013 50.7225L13.3823 51.6256L13.4439 51.6461L14.4342 48.8188C14.66 48.1671 14.6651 47.7053 14.4496 47.3153C14.2854 47.0382 14.0237 46.833 13.6851 46.715L13.6902 46.7201Z" fill="#192C55"></path>
  <path d="M20.838 101.173L22.3518 100.08V100.075L24.1733 102.599C24.4145 102.933 24.4915 103.225 24.4094 103.497C24.3581 103.703 24.2349 103.877 24.0451 104.016C23.8706 104.139 23.6961 104.2 23.5063 104.2H23.4344C23.1368 104.175 22.8854 104.011 22.6596 103.698L20.838 101.173Z" fill="#192C55"></path>
  <path d="M19.8374 101.896L19.8341 101.899L19.8323 101.896H19.8374Z" fill="#192C55"></path>
  <path d="M19.8341 101.899L21.8386 104.667C22.1054 105.037 22.1875 105.375 22.0901 105.688C22.0182 105.904 21.8899 106.078 21.7001 106.212C21.5051 106.35 21.2998 106.427 21.11 106.427H21.0638C20.7354 106.427 20.4532 106.248 20.1761 105.868L18.1749 103.097L19.8341 101.899Z" fill="#192C55"></path>
  <path d="M29.2789 109.434C28.5657 109.445 27.8884 109.763 27.3804 110.322C26.3285 111.471 26.4516 113.119 27.6729 114.232C28.2681 114.776 28.9711 115.048 29.6535 115.048C30.336 115.048 31.0595 114.75 31.5931 114.165C32.1063 113.606 32.3577 112.908 32.3013 112.195C32.2499 111.487 31.8908 110.799 31.3007 110.255C30.7106 109.717 29.9922 109.429 29.2789 109.434Z" fill="#192C55"></path>
  <path d="M61.2313 128.569L58.2295 128.107L60.2255 125.505L61.3442 128.589L61.2313 128.569Z" fill="#192C55"></path>
  <path d="M78.0464 86.7644H59.2198V75.2396H78.0413C83.1161 75.2396 85.656 77.1433 85.656 80.9507C85.656 82.7826 84.989 84.2091 83.6497 85.2302C82.3105 86.2564 80.4427 86.7644 78.0464 86.7644Z" fill="#192C55"></path>
  <path d="M74.4443 51.0252C76.4916 51.0252 78.0413 51.487 79.0983 52.4004C80.1553 53.3138 80.6839 54.6171 80.6839 56.3104C80.6839 59.7689 78.6006 61.493 74.4443 61.493H59.2198V51.0252H74.4443Z" fill="#192C55"></path>
  <path fill-rule="evenodd" clip-rule="evenodd" d="M87.5597 67.3118C90.5872 64.4948 92.106 60.79 92.106 56.2078C92.106 51.6256 90.5923 48.0337 87.5597 45.2115C84.5272 42.3944 80.4376 40.9833 75.296 40.9833H47.9105V65.1977H40.5113V71.54H47.9105V97.0218H55.3098V71.54H75.2909C80.4376 71.54 84.522 70.1289 87.5546 67.3118H87.5597ZM55.3098 65.3004V47.223H73.9209C77.446 47.223 80.14 48.0542 82.0077 49.7065C83.8755 51.3639 84.8094 53.5652 84.8094 56.3155C84.8094 59.0659 83.8755 61.1646 82.0077 62.8168C80.14 64.4742 77.4409 65.3004 73.9209 65.3004H55.3098Z" fill="#192C55"></path>
  <path d="M96.2264 74.2903C94.959 72.1762 93.2657 70.5548 91.1516 69.4259C89.8124 70.9755 87.8727 72.2789 85.3379 73.3359C86.6053 74.0389 87.6624 75.0446 88.509 76.348C89.3557 77.6513 89.7764 79.1855 89.7764 80.9456C89.7764 83.9781 88.6989 86.3385 86.5489 88.0318C84.3989 89.7252 81.3868 90.5718 77.5076 90.5718H59.2147V97.0218H79.0932C84.8043 97.0218 89.4019 95.5235 92.8911 92.5268C96.3804 89.5302 98.125 85.6715 98.125 80.9507C98.125 78.6262 97.4887 76.4044 96.2213 74.2903H96.2264Z" fill="#192C55"></path>
  <path d="M101.409 114.766L103.846 112.903V112.908C104.436 112.457 105.155 112.539 105.591 113.108C106.027 113.678 105.919 114.391 105.329 114.843L102.892 116.705L101.409 114.766Z" fill="#192C55"></path>
  <path fill-rule="evenodd" clip-rule="evenodd" d="M0 69C0 30.8953 30.8953 0 69 0C107.11 0 138 30.8953 138 69C138 107.105 107.105 138 69 138C30.8953 138 0 107.105 0 69ZM127.671 52.0053L128.923 51.5589L128.933 51.5537L126.568 44.9139L118.999 47.6129L121.431 54.4324L122.683 53.986L120.754 48.5776L122.714 47.8797L124.156 51.9283L125.408 51.4819L123.961 47.4333L125.808 46.7765L127.671 52.0053ZM120.622 33.9353L119.481 34.6155L121.026 37.2119L120.969 37.2478L115.274 40.6395L116.038 41.9275L121.79 38.5049L123.335 41.1014L124.479 40.4189L120.622 33.9353ZM118.358 30.8235L113.38 25.1432V25.138L112.38 26.0155L114.376 28.2886L114.324 28.3348L109.337 32.7066L110.322 33.8355L115.361 29.4226L115.407 29.4739L117.357 31.7009L118.358 30.8235ZM104.519 17.7393L110.091 22.049L109.275 23.1009L104.939 19.7451L104.888 19.704L103.687 21.2537L107.089 23.886L106.273 24.9379L102.928 22.3466L102.877 22.3056L101.604 23.9476L106.145 27.4625L105.329 28.5144L99.6079 24.0861L104.519 17.7393ZM92.4293 11.1554L90.4794 15.2039L90.4846 15.1988C89.525 17.1948 90.305 19.2268 92.4293 20.2479C94.5536 21.2691 96.6267 20.6174 97.5862 18.6213L99.5361 14.5728L98.1866 13.9211L96.2367 17.9697C95.6261 19.2371 94.333 19.6578 93.0143 19.0267C92.3729 18.7188 91.9213 18.2519 91.7058 17.6772C91.4903 17.1025 91.5313 16.4713 91.829 15.8556L93.7788 11.807L92.4293 11.1554ZM79.9706 8.64617C78.9906 9.20547 78.303 10.1342 78.0361 11.258H78.031C77.4871 13.5773 78.9598 15.7735 81.4689 16.3636C83.9473 16.9485 86.2256 15.6811 86.7593 13.4131L86.9029 12.8127L82.6183 11.8019L82.3207 13.0744L85.066 13.721L85.0198 13.7979C84.4143 14.8755 83.1417 15.363 81.7871 15.0448C80.961 14.8499 80.2836 14.4034 79.8731 13.7877C79.4575 13.1668 79.3343 12.392 79.5191 11.6069C79.9039 9.98542 81.3663 9.13877 83.0853 9.54414C84.1013 9.78018 84.9582 10.3959 85.4508 11.2323L86.6977 10.5242C86.0255 9.41586 84.794 8.55381 83.3932 8.2254C82.9878 8.12791 82.5824 8.08173 82.1873 8.08173C81.392 8.08173 80.6274 8.27159 79.9706 8.64617ZM74.7675 14.855L70.3033 6.49617L70.2982 6.5013L65.5056 14.6754L67.1066 14.7062L67.8044 13.4952H67.8455L72.4739 13.5876L73.1204 14.8242L74.7675 14.855ZM61.0055 7.92266C60.4565 7.51216 59.7483 7.38388 58.8966 7.53782H58.8914L54.1245 8.41013L55.5715 16.3123L60.6001 15.3938C61.5905 15.2142 62.2986 14.7575 62.6526 14.0802C62.8887 13.6389 62.9554 13.1309 62.8527 12.5716C62.6937 11.7198 62.1138 11.1502 61.221 10.9655L61.0927 10.9398L61.1902 10.8526C61.6828 10.3959 61.8727 9.82123 61.7495 9.15929C61.6623 8.66669 61.4057 8.2408 61.0055 7.92266ZM38.6281 14.4188C37.7147 14.9268 37.0477 15.5785 36.709 16.302L36.7141 16.3071C36.3755 17.0255 36.3909 17.7439 36.7501 18.3956C37.3658 19.5039 38.6384 19.7092 40.1623 18.9446L41.7325 18.1595C42.5843 17.7336 43.2565 17.7798 43.5336 18.2827C43.6516 18.4982 43.6772 18.7496 43.6003 19.0113C43.4463 19.5347 42.9127 20.0889 42.1276 20.5199C41.0654 21.1049 39.9827 21.2588 38.9052 20.9663L38.6024 22.3466C39.9827 22.6853 41.3631 22.4749 42.7023 21.736C43.6978 21.1818 44.4213 20.4737 44.7959 19.6886C45.1653 18.9087 45.1499 18.1236 44.7599 17.4155C44.1237 16.2661 42.8665 16.0506 41.322 16.8254L39.757 17.6105C38.9103 18.0364 38.2484 18.0158 37.9918 17.5489C37.8327 17.2615 37.8738 16.9229 38.1098 16.5688C38.3356 16.2302 38.7256 15.9018 39.2284 15.6195C40.1264 15.1269 41.0552 14.9679 41.9891 15.1475L42.2867 13.7672C41.0141 13.5619 39.7826 13.7774 38.6281 14.4188ZM25.7435 25.0713C25.0508 25.1329 24.3889 25.4869 23.8244 26.1027H23.8193L20.6276 29.5868L26.5542 35.0106L27.5651 33.9073L25.4767 31.9934L25.9847 31.4392C26.5799 30.7875 27.3496 30.7875 28.1603 30.7875C29.2225 30.7875 30.4232 30.7875 31.6752 29.4226L31.9677 29.0994L30.9877 28.2014L30.7721 28.4323C29.9569 29.3244 29.1673 29.3302 28.4698 29.3354L28.4682 29.3354C28.2578 29.3354 28.068 29.3559 27.8781 29.3867L27.7088 29.4175L27.8165 29.2789C28.7761 28.0474 28.7145 26.7338 27.6575 25.764C27.0982 25.2509 26.4414 25.0149 25.7435 25.0713ZM23.7321 38.9411L24.5685 37.5249V37.5197L15.1013 37.3145L19.8734 45.4937L20.6841 44.1185L19.9708 42.9178L19.9914 42.8819L22.3364 38.9001L23.7321 38.9411ZM12.1457 45.3757C11.4324 45.7092 10.9142 46.366 10.555 47.3923L9.0464 51.7025L16.6304 54.3554L17.123 52.9392L14.6857 52.0874L15.7016 49.1882C16.0557 48.1722 16.066 47.3307 15.7273 46.6277C15.4297 46.0017 14.8909 45.5399 14.1828 45.2936C13.4747 45.0473 12.7717 45.0781 12.1457 45.3757ZM7.19402 69.0205C7.19402 76.7995 8.64103 84.2398 11.2734 91.1003L12.2227 90.7668C9.62624 84.0141 8.19975 76.6815 8.19975 69.0205C8.19975 66.9732 8.30237 64.9463 8.50249 62.9503L7.50703 62.8014C7.30178 64.8488 7.19402 66.9218 7.19402 69.0205ZM11.2528 69.0205C11.2528 76.3326 12.6332 83.3213 15.1218 89.7611H15.1269L16.0762 89.4275C13.6235 83.0904 12.2637 76.2145 12.2637 69.0205C12.2637 67.1733 12.3561 65.3517 12.5305 63.5506L11.5299 63.4018C11.3503 65.2491 11.2528 67.1271 11.2528 69.0205ZM23.3164 105.263C23.9117 105.493 24.4761 105.427 24.9943 105.052H24.9892C25.3741 104.77 25.6358 104.375 25.7435 103.908C25.8718 103.272 25.6973 102.615 25.215 101.948L22.5211 98.2225L16.343 102.687L19.1858 106.617C19.7399 107.392 20.4224 107.813 21.1459 107.838C21.6128 107.854 22.0798 107.71 22.5159 107.392C23.183 106.915 23.4344 106.186 23.2241 105.345L23.1933 105.216L23.3164 105.263ZM26.8005 115.186C28.6067 116.834 31.1211 116.818 32.6502 115.145V115.151C33.3891 114.34 33.7431 113.303 33.6559 112.231C33.5635 111.153 33.035 110.122 32.1576 109.321C31.2904 108.526 30.2282 108.09 29.1558 108.09H29.125C28.0474 108.1 27.0468 108.547 26.3079 109.357C25.569 110.168 25.2099 111.205 25.3022 112.277C25.3946 113.355 25.9231 114.386 26.8005 115.186ZM31.3417 19.391L30.1615 20.3095L35.0927 26.6415L36.2728 25.723L31.3417 19.391ZM37.1913 122.878C39.1207 124.017 41.1321 123.566 42.2046 121.76L42.2097 121.765L44.3854 118.091L43.1641 117.367L40.9885 121.041C40.306 122.191 39.0437 122.488 37.8481 121.78C37.2632 121.431 36.8732 120.954 36.7141 120.39C36.5551 119.825 36.6474 119.23 36.981 118.671L39.1566 114.997L37.9354 114.273L35.7597 117.947C34.6924 119.753 35.2671 121.739 37.1913 122.878ZM45.6579 126.952L51.7795 129.113L52.2003 127.927L47.4128 126.239L49.532 120.241L48.1979 119.769L45.6579 126.952ZM61.7957 129.872L62.2524 131.119H62.2473L63.7866 131.355L60.6412 122.93L55.1046 130.016L56.5977 130.247L57.4085 129.2H57.4444L61.7957 129.872ZM68.2816 131.519L69.6055 131.458L69.3746 126.655L75.6091 131.329L75.2345 123.556L73.9106 123.617L74.1415 128.42L67.907 123.745L68.2816 131.519ZM43.8876 100.834V75.255H36.591V61.4057H43.8876V37.1913H75.1832C79.6935 37.1913 83.5522 38.038 86.7593 39.7262C89.9663 41.4195 92.378 43.708 93.9995 46.5969C95.6209 49.4858 96.4317 52.6929 96.4317 56.218C96.4317 57.9832 96.17 59.7791 95.6363 61.611C95.1078 63.4429 94.4562 64.9258 93.6813 66.0495C99.531 69.6465 102.456 74.6136 102.456 80.9558C102.456 87.2981 100.306 91.9367 96.0058 95.4927C91.7058 99.0538 85.7843 100.834 78.2414 100.834H43.8876ZM84.8043 129.544C85.9383 129.251 86.8824 128.605 87.4622 127.717L87.4571 127.722C88.0369 126.834 88.2114 125.772 87.9395 124.731L87.7958 124.166L83.7523 125.213L84.0602 126.409L86.6515 125.736V125.824C86.6156 126.999 85.7638 127.974 84.481 128.307C83.7062 128.507 82.9365 128.435 82.3156 128.097C81.6896 127.758 81.238 127.163 81.0482 126.419C80.8532 125.675 80.961 124.936 81.3407 124.335C81.7152 123.74 82.3515 123.299 83.1315 123.099C84.0961 122.847 85.0865 122.986 85.8716 123.468L86.6053 122.324C85.9075 121.908 85.0506 121.688 84.168 121.688C83.7164 121.688 83.2598 121.744 82.8133 121.857C80.4427 122.468 79.088 124.587 79.6525 126.778C79.9296 127.84 80.6018 128.707 81.5459 129.215C82.4952 129.723 83.6549 129.841 84.8043 129.544ZM93.5141 126.49L99.69 123.484L99.141 122.355L94.2355 124.741L93.3683 122.96L93.4299 122.93L97.0423 121.175L96.4933 120.046L92.8193 121.831L92.0034 120.148L92.065 120.118L96.7447 117.839L96.1956 116.71L90.1818 119.64L93.5141 126.49ZM106.363 117.014C107.356 117.189 108.478 117.385 109.87 116.32L110.199 116.069L109.434 115.074L109.198 115.253C108.285 115.951 107.546 115.828 106.889 115.715C106.699 115.684 106.515 115.664 106.33 115.664H106.155L106.284 115.551C107.387 114.56 107.546 113.324 106.72 112.241C105.827 111.071 104.365 110.943 103.082 111.923L99.5207 114.648L104.154 120.703L105.278 119.84L103.641 117.701L104.211 117.265C104.876 116.753 105.591 116.879 106.348 117.012L106.356 117.013L106.363 117.014ZM113.66 112.587L108.141 107.336L109.116 106.309L114.637 111.564L113.66 112.587ZM112.097 102.959L118.347 107.32L122.283 101.691L121.252 100.973L118.132 105.442L116.505 104.308L118.84 100.963L117.809 100.244L115.474 103.59L113.94 102.517L116.957 98.1968L115.925 97.4785L112.097 102.959ZM125.736 69.0308C125.736 76.2248 124.377 83.1007 121.924 89.4378V89.4429L122.873 89.7713C125.362 83.3265 126.742 76.3377 126.742 69.0308C126.742 67.1374 126.645 65.2593 126.465 63.4121L125.469 63.5609C125.639 65.3619 125.736 67.1835 125.736 69.0308ZM129.795 69.0308C129.795 76.6866 128.369 84.0192 125.772 90.7771L126.721 91.1106C129.354 84.2501 130.801 76.8046 130.801 69.0308C130.801 66.9321 130.693 64.8591 130.488 62.8117L129.492 62.9605C129.692 64.9566 129.795 66.9834 129.795 69.0308Z" fill="#192C55"></path>
</svg>
