<svg xmlns="http://www.w3.org/2000/svg" xml:space="preserve" width="288.06668" height="263.58667" viewBox="0 0 288.06668 263.58667"><path d="M1080.37 1433.61c173.2 0 320.27 39.71 445.41 96.48-.04.1.02-.12 0 0-45.37-20.07-135.81-42.12-204.41-42.12-175.6 0-332.093 50.57-461.382 149.04-122.082 92.95-235.812 263.47-284.293 304.78-48.672 41.25-104.175 44.89-149.125 17.59-46.972-28.5-56.734-109.25-45.875-191.55 2.25-17.03 8.34-63.22 13.094-93.84 31.5-23.62 66.77-48.1 106.691-72.53 150.458-92.12 340.219-167.85 579.89-167.85" style="fill:#eeb80d;fill-opacity:1;fill-rule:nonzero;stroke:none" transform="matrix(.13333 0 0 -.13333 0 263.587)"/><path d="M2102.25 1860.32c-50.26 23.26-99.57 12.78-152.19-30.66-55.48-45.75-141.56-137.3-290.01-228.18-41.62-25.51-86.38-49.65-134.27-71.39-125.14-56.77-272.21-96.48-445.41-96.48-239.671 0-429.432 75.73-579.89 167.85-39.921 24.43-75.191 48.91-106.691 72.53-85.719 64.27-142.766 122.22-183.312 155.67-52.618 43.44-101.887 53.87-152.208 30.69-46.113-21.23-62.183-77.9-57.484-135.65 10.309-125.91 106.371-381.29 271.598-592.56 183.769-235.101 493.344-437.21 807.987-437.21 314.43 0 624 202.109 807.78 437.21 165.18 211.27 261.33 466.65 271.57 592.56 4.71 57.75-11.35 114.42-57.47 135.62" style="fill:#58bce9;fill-opacity:1;fill-rule:nonzero;stroke:none" transform="matrix(.13333 0 0 -.13333 0 263.587)"/><path d="M581.195 335.02c-33.109 5.91-66.929 8.171-99.64 10.332-29.61 1.968-60.227 3.988-89.864 8.75-26.527 4.277-45.839 13.148-54.367 24.988-4.855 6.73-6.476 14.48-4.969 23.68 3.461 21.128 26.192 32.941 39.438 38.101 102.652 40.027 234.883-6.57 272.969-21.801 12.105-4.808 25.996.59 31.629 12.328l20.293 42.274c2.91 6.066 3.269 12.879 1.004 19.187-2.247 6.27-6.817 11.27-12.872 14.09-43.695 20.242-160.531 64.34-301.175 36.879-59-11.527-129.082-47.25-148.832-112.906-6.84-22.731-8.305-46.332-4.5-72.121 4.25-28.93 17.343-52.25 38.925-69.289 14.829-11.703 32.196-20.231 54.668-26.864 33.028-9.738 67.258-12.507 100.364-15.179 10.968-.899 21.933-1.778 32.875-2.91 11.578-1.207 24.121-1.918 37.113-2.668 41.074-2.332 87.625-5 119.363-24.903 16.035-10.039 19.676-31.597 16.168-48.488-9.476-45.719-71.832-55.871-117.902-59.551-114.219-8.968-198.289 38.071-229.156 58.77-5.524 3.711-12.168 5.043-18.676 3.672-6.578-1.352-12.223-5.2-15.891-10.871l-26.387-40.711c-6.785-10.469-4.593-24.559 5.09-32.77 17.793-15.117 38.77-28.45 62.332-39.59C346.469 20.4 413.293 6.531 479.625 6.531c45.441 0 90.656 6.5 132.367 19.739 39.996 12.68 72.391 34.511 93.688 63.16 40.238 54.148 40.832 136.679 1.336 183.968-25.493 30.532-67.817 51.262-125.821 61.622" style="fill:#656263;fill-opacity:1;fill-rule:nonzero;stroke:none" transform="matrix(.13333 0 0 -.13333 0 263.587)"/><path d="M269.074 170.66c-1.586 0-3.179-.16-4.765-.488-6.266-1.293-11.621-4.961-15.09-10.344l-26.391-40.707c-6.437-9.93-4.359-23.312 4.844-31.11 17.687-15.05 38.566-28.3 62.062-39.433 56.489-26.68 122.153-40.777 189.891-40.777 46.445 0 90.852 6.61 131.988 19.66 39.762 12.629 71.942 34.32 93.059 62.73 39.91 53.707 40.523 135.539 1.375 182.399-25.277 30.301-67.356 50.89-125.07 61.191-33.266 5.938-66.938 8.16-99.504 10.309-29.653 1.98-60.289 4-89.977 8.762-26.875 4.347-46.476 13.398-55.195 25.5-5.055 7.019-6.754 15.07-5.192 24.617 3.575 21.769 26.743 33.82 40.227 39.082 103.07 40.148 235.687-6.531 273.891-21.813 11.519-4.547 24.679.563 30.039 11.703l20.289 42.258c2.765 5.781 3.097 12.25.949 18.223-2.137 5.957-6.473 10.719-12.219 13.379-43.566 20.199-160.058 64.168-300.41 36.801-58.633-11.461-128.27-46.911-147.863-112.043-6.782-22.547-8.242-45.969-4.457-71.571 4.195-28.629 17.133-51.66 38.453-68.488 14.664-11.578 31.906-20.051 54.258-26.641 33.011-9.73 67.117-12.48 100.097-15.129l2.047-.179c10.125-.821 20.582-1.692 30.863-2.75 11.09-1.16 22.957-1.832 35.528-2.571l1.527-.082c41.211-2.347 87.918-5 119.957-25.089 16.547-10.368 20.324-32.481 16.727-49.821-9.645-46.519-72.547-56.84-119.024-60.547-114.703-9.152-199.043 38.258-229.965 58.981-3.902 2.629-8.375 3.988-12.949 3.988zM479.625 5.281c-68.109 0-134.148 14.2-190.969 41.04-23.691 11.199-44.761 24.6-62.605 39.757-10.164 8.621-12.457 23.41-5.332 34.41l26.39 40.723c3.836 5.93 9.766 9.988 16.692 11.41 6.84 1.41 13.804.051 19.629-3.859 30.703-20.571 114.437-67.571 228.359-58.551 45.668 3.641 107.469 13.668 116.77 58.551 3.418 16.468-.082 37.437-15.614 47.168-31.484 19.73-77.855 22.379-118.761 24.699l-1.532.101c-12.593.719-24.492 1.411-35.64 2.579-10.246 1.05-20.699 1.921-30.809 2.742l-2.043.16c-33.105 2.668-67.34 5.43-100.609 15.23-22.668 6.7-40.18 15.309-55.098 27.098-21.844 17.223-35.09 40.813-39.383 70.09-3.836 25.973-2.355 49.742 4.539 72.652 19.911 66.199 90.434 102.18 149.789 113.778 141.067 27.57 258.157-16.7 301.95-36.969 6.351-2.961 11.164-8.231 13.527-14.82 2.371-6.61 1.996-13.77-1.055-20.149l-20.297-42.262c-5.906-12.32-20.48-18.078-33.23-12.937-37.98 15.199-169.852 61.699-272.039 21.769-12.996-5.043-35.289-16.589-38.66-37.113-1.446-8.867.105-16.308 4.754-22.758 8.324-11.558 27.34-20.242 53.543-24.48 29.57-4.762 60.148-6.77 89.722-8.731 32.657-2.16 66.399-4.39 99.805-10.339 58.312-10.442 100.895-31.309 126.559-62.071 39.843-47.699 39.269-130.918-1.293-185.52-21.426-28.84-54.039-50.827-94.321-63.609-41.371-13.129-86.035-19.789-132.738-19.789M1212.33 343.219c-4.09-12.617-12.45-21.828-25.57-28.129-8.92-4.27-18.7-6.809-29.07-7.531-6.97-.489-13.95-.969-20.94-.969-75.18-.051-100.55-.051-175.715-.051h-37.047v126.199l212.022.043c14.51 0 26.14-1.32 36.59-4.172 10.56-2.847 19.19-7.269 26.37-13.519 5.95-5.168 10.24-11.84 12.75-19.828 5.72-18.16 5.92-35.672.61-52.043zm74.23 135.742c-17.97 21.18-41.47 36.699-69.85 46.109-19.07 6.301-40.2 9.371-64.61 9.371l-307.87-.742c-14.464-.039-26.179-11.769-26.179-26.238l-.082-481.18C817.961 12.61 829.07 1.47 842.738 1.43l56.184-.168h.074c4.102 0 8.195.91 11.777 2.91 8.317 4.648 13.075 12.937 13.075 21.95l-.032 178.769h189.274c19.93 0 37.95.121 56.47 1.679 10.73.91 21.55 2.532 32.16 4.828 20.81 4.473 38.78 11.543 54.94 21.582 26.04 16.149 44.9 38.981 56.08 67.829 7.06 18.25 10.66 38.421 11.31 63.5a198.174 198.174 0 0 1-4.3 46.351c-5.59 25.988-16.76 48.969-33.19 68.301" style="fill:#656263;fill-opacity:1;fill-rule:nonzero;stroke:none" transform="matrix(.13333 0 0 -.13333 0 263.587)"/><path d="M925.246 307.789h35.789c75.165 0 100.535 0 175.715.07 6.66 0 13.11.411 20.85.961 10.2.711 19.83 3.192 28.61 7.399 12.79 6.152 20.95 15.109 24.93 27.39 5.23 16.129 5.02 33.371-.61 51.262-2.45 7.77-6.61 14.27-12.39 19.27-7.01 6.121-15.48 10.449-25.87 13.269-10.35 2.809-21.86 4.121-36.26 4.121l-210.764-.051Zm35.789-2.519h-38.308V434l213.283.051c14.63 0 26.36-1.34 36.91-4.223 10.78-2.906 19.57-7.43 26.88-13.789 6.12-5.32 10.54-12.187 13.12-20.41 5.79-18.399 6.01-36.168.61-52.801-4.21-12.957-12.78-22.406-26.23-28.867-9.07-4.352-19.01-6.922-29.52-7.66-7.8-.539-14.29-.961-21.03-.961-75.18-.07-100.55-.07-175.715-.07zm191.055 227.91-307.863-.75c-13.731-.032-24.911-11.219-24.918-24.961l-.086-481.188c0-12.972 10.55-23.55 23.515-23.582l56.184-.18c4.144 0 8.004.942 11.234 2.743 7.789 4.347 12.434 12.16 12.434 20.86l-.035 180.026h190.535c19.99 0 38.02.122 56.37 1.672 10.73.918 21.5 2.539 31.99 4.809 20.65 4.43 38.5 11.43 54.55 21.41 25.78 16 44.48 38.621 55.57 67.231 7.01 18.101 10.57 38.14 11.22 63.082.39 15.507-1.05 31-4.27 46.046-5.55 25.793-16.63 48.59-32.92 67.743-17.82 21.019-41.14 36.41-69.28 45.738-18.97 6.262-39.98 9.301-64.23 9.301zM898.996 0l-56.269.18c-14.344.03-26.024 11.742-26.024 26.101l.082 481.188c.012 15.109 12.32 27.453 27.442 27.48l307.863.75c24.53 0 45.79-3.09 65.01-9.437 28.59-9.473 52.29-25.102 70.42-46.481 16.56-19.48 27.81-42.64 33.45-68.859 3.28-15.25 4.73-30.934 4.34-46.633-.66-25.238-4.29-45.559-11.4-63.937-11.29-29.133-30.33-52.161-56.59-68.442-16.3-10.14-34.4-17.23-55.34-21.73a255.316 255.316 0 0 0-32.31-4.879c-18.44-1.539-36.53-1.672-56.58-1.672H925.074l.035-177.508c0-9.64-5.136-18.262-13.722-23.05C907.777 1.058 903.492 0 898.996 0M1621.42 440.551c50.69 12.449 105.96 9.871 151.62-7.051 33.1-12.289 68.28-43.148 81.86-55.852 7.07-6.628 17.02-8.578 25.96-5.078l45.98 18.008c7.47 2.934 12.92 9.063 14.95 16.801 2.03 7.75.28 15.762-4.79 21.98-11.98 14.692-28.57 34.219-39.55 43.93-19.73 17.391-41.69 31.902-67.15 44.352-86.8 42.437-192.59 44.648-283 5.828-59.39-25.481-109.2-70.59-136.66-123.75-41.59-80.539-36.93-189.539 11.35-265.09 47.65-74.578 138.78-124.438 232.18-127.04 5.74-.16 11.41-.25 17.01-.25 83.36 0 150.7 17.7 205.45 53.923 24.94 16.5 45.85 39.777 59 56.418 4.43 5.59 6.2 12.84 4.87 19.871a24.876 24.876 0 0 1-11.92 16.879l-44.82 26.16c-9.61 5.609-21.86 4.129-29.78-3.629-24.34-23.859-46.68-42.109-76.62-53.652-67.34-25.95-170.86-26.7-239.04 32.972-15.29 13.391-27.61 29.91-36.6 49.11-9.68 20.589-14.64 43.429-15.17 69.769-1.84 90.942 66.42 148.59 134.87 165.391" style="fill:#656263;fill-opacity:1;fill-rule:nonzero;stroke:none" transform="matrix(.13333 0 0 -.13333 0 263.587)"/><path d="M1682.94 549.852c-46.08 0-92.34-9.161-135.14-27.543-59.13-25.368-108.71-70.27-136.04-123.168-41.39-80.161-36.76-188.653 11.28-263.84 47.44-74.23 138.18-123.871 231.16-126.45 91.03-2.542 163.45 14.899 221.74 53.45 24.87 16.449 45.65 39.629 58.7 56.168 4.21 5.301 5.89 12.172 4.63 18.859a23.685 23.685 0 0 1-11.32 16.024l-44.82 26.16c-9.13 5.328-20.75 3.886-28.28-3.453-24.43-23.95-46.88-42.297-77.05-53.93-67.68-26.059-171.75-26.79-240.3 33.199-15.44 13.531-27.85 30.184-36.91 49.524-9.76 20.726-14.76 43.726-15.3 70.277-1.84 91.633 66.89 149.711 135.83 166.641 50.92 12.531 106.44 9.941 152.35-7.098 33.31-12.371 68.64-43.352 82.29-56.102 6.69-6.289 16.15-8.179 24.64-4.832l45.98 18.012c7.1 2.781 12.26 8.602 14.19 15.949 1.94 7.34.27 14.961-4.54 20.879-11.98 14.66-28.54 34.172-39.41 43.762-19.65 17.32-41.52 31.762-66.88 44.18-45.38 22.179-95.98 33.332-146.8 33.332zM1671.18 6.078c-5.59 0-11.32.082-17.05.25-93.79 2.613-185.32 52.711-233.2 127.633-48.5 75.891-53.19 185.41-11.4 266.328 27.59 53.422 77.62 98.742 137.27 124.34 90.68 38.941 196.88 36.769 284.05-5.859 25.55-12.508 47.61-27.079 67.43-44.54 11-9.71 27.66-29.32 39.69-44.058 5.34-6.563 7.17-14.981 5.04-23.113-2.14-8.129-7.87-14.559-15.71-17.649l-45.99-18.019c-9.4-3.641-19.86-1.61-27.27 5.339-13.53 12.649-48.56 43.379-81.44 55.579-45.44 16.832-100.44 19.441-150.88 7-67.97-16.661-135.74-73.887-133.91-164.118.53-26.203 5.45-48.851 15.05-69.269 8.92-19.024 21.13-35.41 36.29-48.692 67.78-59.308 170.74-58.55 237.75-32.742 29.76 11.461 51.99 29.633 76.19 53.371 8.34 8.141 21.2 9.731 31.3 3.813l44.83-26.16a26.142 26.142 0 0 0 12.52-17.731 25.898 25.898 0 0 0-5.13-20.883c-13.16-16.668-34.14-40.058-59.28-56.699-55.06-36.418-122.49-54.12-206.15-54.12" style="fill:#656263;fill-opacity:1;fill-rule:nonzero;stroke:none" transform="matrix(.13333 0 0 -.13333 0 263.587)"/></svg>